<?xml version="1.0" encoding="UTF-8"?><svg id="Layer_1" xmlns="http://www.w3.org/2000/svg" viewBox="0 0 388.61 148.16"><defs><style>.cls-1{opacity:.5;}.cls-1,.cls-2{fill:#231f20;}</style></defs><path class="cls-2" d="M166.78,73.99c0,3.27-2.15,6.04-5.11,6.97,2.2,3.16,5.86,5.24,10.01,5.24,6.74,0,12.2-5.46,12.2-12.2s-5.46-12.2-12.2-12.2c-4.15,0-7.81,2.07-10.01,5.24,2.96,.93,5.11,3.7,5.11,6.97Z"/><path class="cls-1" d="M183.51,49.95c-10.76,0-19.87,7.07-22.93,16.82,.1,.01,.19,.03,.29,.04,2.84-7.07,9.75-12.06,17.83-12.06,10.62,0,19.23,8.61,19.23,19.23s-8.61,19.23-19.23,19.23c-8.08,0-14.99-4.99-17.83-12.06-.1,.02-.19,.03-.29,.04,3.06,9.75,12.17,16.82,22.93,16.82,13.27,0,24.03-10.76,24.03-24.03s-10.76-24.03-24.03-24.03Z"/><path class="cls-1" d="M136.02,95.98c-10.8,0-61.8-17.15-76.01-22,14.2-4.85,65.21-22,76.01-22,2.27,0,4.5,.35,6.63,.99v-7.26c-3.97-1.97-8.46-3.08-13.31-3.08-16.61,0-99.95,28.86-103.49,30.08l-3.64,1.26,3.64,1.26c3.54,1.23,86.88,30.08,103.49,30.08,4.85,0,9.34-1.11,13.31-3.08v-7.26c-2.13,.64-4.36,.99-6.63,.99Z"/><path class="cls-2" d="M152.18,73.99c0-3.49,2.45-6.4,5.72-7.12-2.51-6.61-8.34-11.8-15.25-13.89v42.02c6.91-2.08,12.74-7.28,15.25-13.89-3.27-.72-5.72-3.64-5.72-7.12Z"/><path class="cls-2" d="M158.69,66.73c.26-.03,.52-.04,.79-.04V24.41h-13.08c-2.07,0-3.75,1.68-3.75,3.75v17.56c8.13,4.04,14,11.74,16.04,21.01Z"/><path class="cls-2" d="M142.65,102.25v17.6c0,2.07,1.68,3.75,3.75,3.75h13.08v-42.32c-.27,0-.53-.02-.79-.04-2.04,9.27-7.91,16.97-16.04,21.01Z"/><path class="cls-2" d="M222.06,24.41h-22.18c10.88,13.6,17.41,30.83,17.41,49.6s-6.52,36.01-17.41,49.6h22.18c8.58-14.54,13.53-31.49,13.53-49.6s-4.94-35.06-13.53-49.6Z"/><path class="cls-2" d="M274.55,53.26l-44.28,70.49,16.77-.05,12.29-19.34,17.91-.05,.06,19.3,14.04-.04-.21-70.36-16.58,.05Zm4.09,38.21l-13.82,.04,13.74-25.42,.08,25.38Z"/><path class="cls-2" d="M353.09,123.38l10.29-.03c1.67,0,3.02-1.36,3.02-3.04l-.19-64.31c0-1.67-1.36-3.02-3.04-3.02l-10.29,.03,.21,70.36Z"/><path class="cls-2" d="M334.5,56.75c-3.8-2.44-8.29-3.59-12.81-3.57l-18.74,.06h0l.21,70.35h0l13.2-.04h0l-.06-19.87h0c.06,0,28.53-.25,28.46-26.07-.03-10.03-3.95-16.8-10.26-20.85Zm-19.72,34.6h0l-.08-27.32h0l4.82-.02c2.93,0,4.5,.43,6.5,1.46,4.03,2.07,7.22,6.02,7.24,12.34,.03,11.57-11.19,13.51-18.48,13.53Z"/></svg>