<?xml version="1.0" standalone="no"?>
<!DOCTYPE svg PUBLIC "-//W3C//DTD SVG 20010904//EN"
 "http://www.w3.org/TR/2001/REC-SVG-20010904/DTD/svg10.dtd">
<svg version="1.0" xmlns="http://www.w3.org/2000/svg"
 width="300.000000pt" height="300.000000pt" viewBox="0 0 300.000000 300.000000"
 preserveAspectRatio="xMidYMid meet">
<metadata>
Created by potrace 1.14, written by Peter Selinger 2001-2017
</metadata>
<g transform="translate(0.000000,300.000000) scale(0.100000,-0.100000)"
fill="#000000" stroke="none">
<path d="M1721 2071 c-14 -14 -17 -37 -16 -134 0 -64 -2 -117 -6 -117 -4 0
-26 7 -50 16 -80 28 -215 13 -424 -46 -44 -12 -93 -26 -110 -30 -124 -32 -933
-296 -948 -309 -11 -11 583 -208 904 -301 340 -99 459 -119 554 -94 28 7 57
14 65 16 12 2 14 -17 15 -114 0 -94 3 -121 16 -133 15 -15 55 -19 179 -16 l25
1 -1 265 c-1 248 -5 305 -19 259 -29 -91 -100 -189 -164 -227 l-31 -18 0 43
c0 42 1 44 55 72 55 28 116 92 129 133 6 18 2 25 -17 34 -56 26 -62 98 -12
145 34 32 35 35 21 61 -21 42 -80 97 -131 122 -43 22 -45 24 -45 68 l0 45 38
-28 c74 -55 134 -137 153 -207 6 -22 13 -36 16 -33 5 4 8 451 4 528 -1 15 -13
17 -92 16 -71 0 -95 -4 -108 -17z m-33 -350 c16 -8 17 -34 17 -268 0 -142 -4
-264 -8 -270 -14 -22 -122 -15 -245 16 -129 32 -268 74 -502 149 -276 89 -291
95 -283 103 6 5 215 78 243 84 3 1 77 24 165 53 375 120 562 161 613 133z"/>
<path d="M2495 2006 c117 -180 170 -361 167 -575 -1 -82 -6 -121 -28 -230 -18
-90 -83 -232 -150 -329 l-43 -62 47 -1 c215 -3 235 -2 250 17 39 52 113 246
136 355 61 303 24 575 -115 851 l-28 56 -145 1 -145 0 54 -83z"/>
<path d="M2131 1741 c-64 -22 -93 -43 -142 -102 -46 -55 -55 -83 -34 -101 58
-49 70 -78 49 -126 -11 -28 -49 -59 -66 -54 -20 5 43 -101 81 -139 91 -89 277
-105 381 -31 99 70 145 163 138 278 -8 116 -67 208 -170 260 -66 34 -165 40
-237 15z m155 -79 c136 -70 170 -259 66 -374 -53 -58 -104 -82 -182 -82 -78 0
-128 23 -183 83 -45 50 -49 73 -7 37 81 -68 204 -35 244 65 39 98 -28 206
-132 214 -40 3 -95 -16 -124 -42 -31 -28 -20 1 17 44 75 88 194 110 301 55z"/>
</g>
</svg>
